<?xml version="1.0" encoding="UTF-8"?>
<svg width="24px" height="24px" viewBox="0 0 24 24" version="1.1" xmlns="http://www.w3.org/2000/svg" xmlns:xlink="http://www.w3.org/1999/xlink">
    <title>741AA1BA-C279-4E19-A9E0-16FA55CB5C5F</title>
    <g id="Version-002" stroke="none" stroke-width="1" fill="none" fill-rule="evenodd">
        <g id="Dashboard-LOGOUT" transform="translate(-722.000000, -973.000000)">
            <g id="Group-30" transform="translate(722.000000, 973.000000)">
                <g id="Group-15">
                    <rect id="Rectangle" fill="#FFB58F" opacity="0.1" x="0" y="0" width="24" height="24" rx="2"></rect>
                    <g id="Group-14" transform="translate(3.000000, 3.000000)" fill-rule="nonzero">
                        <polygon id="Path" fill="#FF844A" points="8.15095118 1.92845739e-13 9.23772806 1.92845739e-13 9.23772806 2.17358936 8.15095118 2.17358936"></polygon>
                        <polygon id="path-1_31_" fill="#FF844A" points="1.9304558e-13 8.97910727 2.17358936 8.97910727 2.17358936 10.0658842 1.9304558e-13 10.0658842"></polygon>
                        <polygon id="path-1_30_" fill="#FF844A" points="15.7134644 8.97910727 17.8870538 8.97910727 17.8870538 10.0658842 15.7134644 10.0658842"></polygon>
                        <polygon id="Path" fill="#FF844A" transform="translate(13.687520, 3.154787) rotate(-45.000000) translate(-13.687520, -3.154787) " points="12.6008893 2.61148074 14.7741504 2.61148074 14.7741504 3.6980935 12.6008893 3.6980935"></polygon>
                        <polygon id="Path" fill="#FF844A" transform="translate(2.545933, 3.539642) rotate(-45.000000) translate(-2.545933, -3.539642) " points="2.00262625 2.45301181 3.08923901 2.45301181 3.08923901 4.62627293 2.00262625 4.62627293"></polygon>
                        <path d="M8.69432182,4.34717871 C5.69820089,4.34717871 3.26036623,6.78501337 3.26036623,9.7811343 C3.26036623,11.497821 4.0674838,13.1009495 5.43395559,14.1267111 L5.43395559,16.845273 C5.43395559,17.1456149 5.67698437,17.3886792 5.97736183,17.3886792 L11.4113174,17.3886792 C11.7116593,17.3886792 11.9547237,17.1456505 11.9547237,16.845273 L11.9547237,14.1267111 C13.3211598,13.1009495 14.128313,11.497821 14.128313,9.7811343 C14.128313,6.78501337 11.6904428,4.34717871 8.69432182,4.34717871 Z M11.1088397,13.3943853 C10.958117,13.4951994 10.8679112,13.6645043 10.8679112,13.8459838 L10.8679112,16.3018668 L6.52073247,16.3018668 L6.52073247,13.8459838 C6.52073247,13.6645043 6.43052668,13.495235 6.27980398,13.3943853 C5.06935902,12.5840639 4.34714311,11.2330061 4.34714311,9.7811343 C4.34714311,7.38413076 6.29731828,5.43395559 8.69432182,5.43395559 C11.0913254,5.43395559 13.0415005,7.38413076 13.0415005,9.7811343 C13.0415005,11.2330061 12.3192846,12.5840639 11.1088397,13.3943853 L11.1088397,13.3943853 Z" id="Shape" fill="#FF4C00"></path>
                    </g>
                </g>
            </g>
        </g>
    </g>
</svg>