<?xml version="1.0" encoding="UTF-8"?>
<svg width="128px" height="128px" viewBox="0 0 128 128" version="1.1" xmlns="http://www.w3.org/2000/svg" xmlns:xlink="http://www.w3.org/1999/xlink">
    <title>D455769A-1BE1-4A25-9946-9B587EE9F594</title>
    <defs>
        <polygon id="path-1" points="0 0.3024 0 37.4704 93.93536 34.5456 94.22048 0.3024"></polygon>
        <polygon id="path-3" points="0 0.035392 94.22048 0.035392 94.22048 39.669632 0 39.669632"></polygon>
        <polygon id="path-5" points="3.2e-05 0.302336 94.22048 0.302336 94.22048 63.039936 3.2e-05 63.039936"></polygon>
        <polygon id="path-7" points="3.2e-05 0.311296 94.22048 0.311296 94.22048 31.679936 3.2e-05 31.679936"></polygon>
        <polygon id="path-9" points="0.112512 0.176288 36.30048 0.176288 36.30048 31.999968 0.112512 31.999968"></polygon>
        <polygon id="path-11" points="9.6e-05 0.176384 36.187936 0.176384 36.187936 32 9.6e-05 32"></polygon>
    </defs>
    <g id="Version-002" stroke="none" stroke-width="1" fill="none" fill-rule="evenodd">
        <g id="Extras" transform="translate(-150.000000, -1498.000000)">
            <g id="Group-8" transform="translate(150.000000, 1498.000000)">
                <rect id="Rectangle" fill="#F9F9F9" opacity="0" x="0" y="0" width="128" height="128" rx="12"></rect>
                <g id="Group-34" transform="translate(17.000000, 12.000000)">
                    <g id="Group-3" transform="translate(0.000000, 39.644800)">
                        <mask id="mask-2" fill="white">
                            <use xlink:href="#path-1"></use>
                        </mask>
                        <g id="Clip-2"></g>
                        <polygon id="Fill-1" mask="url(#mask-2)" points="0 0.3024 0 37.4704 93.93536 34.5456 94.22048 0.3024"></polygon>
                    </g>
                    <g id="Group-33" transform="translate(0.000000, 0.284800)">
                        <g id="Group-6">
                            <mask id="mask-4" fill="white">
                                <use xlink:href="#path-3"></use>
                            </mask>
                            <g id="Clip-5"></g>
                            <path d="M58.032608,8.300992 L49.544928,0.943552 C48.147488,-0.267328 46.072928,-0.267328 44.675808,0.943552 L36.188128,8.300992 L-3.2e-05,39.669632 L94.220768,39.669632 L58.032608,8.300992 Z" id="Fill-4" fill="#ED1164" mask="url(#mask-4)"></path>
                        </g>
                        <path d="M10.73088,97.811296 C14.49248,98.052896 18.26752,98.155936 22.03552,98.242976 C35.61536,98.556576 49.20064,98.191136 62.76576,97.544096 C69.2096,97.236576 75.664,96.976416 82.09984,96.532896 C84.66016,96.356256 87.2192,96.131936 89.76672,95.822496 L89.76672,25.482656 L75.32928,11.045216 L9.64768,11.045216 C6.97856,11.045216 4.81504,13.208736 4.81504,15.877856 L4.81504,97.464096 C6.78784,97.526496 8.76064,97.684896 10.73088,97.811296" id="Fill-7" fill="#F2F2F2"></path>
                        <path d="M80.161984,25.48256 L89.766784,25.48256 L75.329024,11.04544 L75.329024,20.64992 C75.329024,23.31904 77.492864,25.48256 80.161984,25.48256" id="Fill-9" fill="#D0CCCC"></path>
                        <g id="Group-13" transform="translate(0.000000, 39.360000)">
                            <mask id="mask-6" fill="white">
                                <use xlink:href="#path-5"></use>
                            </mask>
                            <g id="Clip-12"></g>
                            <polygon id="Fill-11" fill="#ED1164" mask="url(#mask-6)" points="47.110432 41.138816 3.2e-05 0.302336 3.2e-05 63.039936 94.220832 63.039936 94.220832 0.302336"></polygon>
                        </g>
                        <g id="Group-16" transform="translate(0.000000, 70.720000)">
                            <mask id="mask-8" fill="white">
                                <use xlink:href="#path-7"></use>
                            </mask>
                            <g id="Clip-15"></g>
                            <polygon id="Fill-14" fill="#ED1164" mask="url(#mask-8)" points="47.110432 9.778816 36.188192 0.311296 3.2e-05 31.679936 94.220832 31.679936 58.032672 0.311296"></polygon>
                        </g>
                        <path d="M58.032608,71.031296 L49.544928,63.673856 C48.147488,62.462656 46.072928,62.462656 44.675808,63.673856 L36.188128,71.031296 L47.110368,80.498816 L58.032608,71.031296 Z" id="Fill-17" fill="#ED1164"></path>
                        <g id="Group-21" transform="translate(57.920000, 70.400000)">
                            <mask id="mask-10" fill="white">
                                <use xlink:href="#path-9"></use>
                            </mask>
                            <g id="Clip-20"></g>
                            <polyline id="Fill-19" fill="#000000" opacity="0.0572684152" mask="url(#mask-10)" points="0.636992 0.176288 0.492032 0.302368 0.112512 0.631328 36.300672 31.999968 36.300672 29.039968"></polyline>
                        </g>
                        <path d="M58.556992,70.576288 L58.412032,70.702368 L58.556992,70.576288 Z" id="Fill-22" fill="#F6AF33"></path>
                        <g id="Group-26" transform="translate(0.000000, 70.400000)">
                            <mask id="mask-12" fill="white">
                                <use xlink:href="#path-11"></use>
                            </mask>
                            <g id="Clip-25"></g>
                            <polygon id="Fill-24" fill="#000000" opacity="0.0572684152" mask="url(#mask-12)" points="9.6e-05 29.040064 9.6e-05 32.000064 36.187936 0.631424 35.795616 0.290944 35.663456 0.176384"></polygon>
                        </g>
                        <path d="M35.663552,70.576288 L35.795712,70.690848 L35.663552,70.576288 Z" id="Fill-27" fill="#F6AF33"></path>
                        <path d="M63.409792,38.772864 C63.409792,47.674944 56.192832,54.891904 47.290752,54.891904 C38.388672,54.891904 31.171712,47.674944 31.171712,38.772864 C31.171712,29.870464 38.388672,22.653824 47.290752,22.653824 C56.192832,22.653824 63.409792,29.870464 63.409792,38.772864" id="Fill-29" fill="#EFB229"></path>
                        <path d="M49.003552,43.619744 C49.520992,44.138144 49.779232,44.805344 49.779232,45.623264 C49.779232,46.458464 49.520992,47.134304 49.003552,47.651104 C48.486112,48.169504 47.808992,48.426464 46.974432,48.426464 C46.157792,48.426464 45.489952,48.169504 44.972192,47.651104 C44.455712,47.134304 44.196832,46.458464 44.196832,45.623264 C44.196832,44.805344 44.455712,44.138144 44.972192,43.619744 C45.489952,43.103264 46.157792,42.844064 46.974432,42.844064 C47.808992,42.844064 48.486112,43.103264 49.003552,43.619744 L49.003552,43.619744 Z M44.196832,29.119264 L50.024032,29.119264 L50.024032,34.130144 L48.934752,41.184224 L45.285792,41.184224 L44.196832,34.130144 L44.196832,29.119264 Z" id="Fill-31" fill="#FFFFFF"></path>
                    </g>
                </g>
            </g>
        </g>
    </g>
</svg>